<svg xmlns="http://www.w3.org/2000/svg" width="193.246" height="40" viewBox="0 0 193.246 40">
    <defs>
        <clipPath id="y808d4g6ra">
            <path data-name="사각형 15" style="fill:#3258ee" d="M0 0h193.246v40H0z"/>
        </clipPath>
    </defs>
    <g data-name="그룹 2">
        <g data-name="그룹 1" style="clip-path:url(#y808d4g6ra)">
            <path data-name="패스 1" d="M11.753 14.052 9.4 13.075a16.714 16.714 0 0 1-1.869-.875 4.4 4.4 0 0 1-1.231-.954 2.255 2.255 0 0 1-.444-1.5 1.936 1.936 0 0 1 1.109-1.657 3.3 3.3 0 0 1 1.022-.414 6.794 6.794 0 0 1 1.49-.132 7 7 0 0 1 2.014.329 5.577 5.577 0 0 1 .947.335c.3.139.631.3 1 .491a2.711 2.711 0 0 0 1.241.283c.455 0 .855-.381 1.195-1.143a5.185 5.185 0 0 0 .514-2.1 1.458 1.458 0 0 0-.872-1.2A12.435 12.435 0 0 0 9.184 3.06a9.991 9.991 0 0 0-5.943 1.72A6.02 6.02 0 0 0 .522 9.961a6.713 6.713 0 0 0 1.436 4.417 7.969 7.969 0 0 0 1.642 1.47 17.5 17.5 0 0 0 2.035 1.187 16.681 16.681 0 0 0 2.275.933 21.242 21.242 0 0 1 2.186.851q2.372 1.065 2.374 2.61 0 2.809-4.18 2.808a7.875 7.875 0 0 1-2.722-.49 7.418 7.418 0 0 1-2.12-1.109 2.39 2.39 0 0 0-1.459-.621A1.219 1.219 0 0 0 .9 22.77c-.266.5-.485.935-.653 1.307A3.041 3.041 0 0 0 0 25.328c0 .466.382.987 1.151 1.568Q3.5 28.7 8.183 28.7q4.615 0 7.119-2.328a7.169 7.169 0 0 0 2.264-5.444 6.426 6.426 0 0 0-1.961-4.636 13.259 13.259 0 0 0-3.853-2.242" transform="translate(0 -.521)" style="fill:#3258ee"/>
            <path data-name="패스 2" d="M44.511 21.758a5.992 5.992 0 0 1-5.183 2.442 6.171 6.171 0 0 1-5.228-2.487 7.992 7.992 0 0 1-1.271-2.578 10.67 10.67 0 0 1-.426-3.027 13.32 13.32 0 0 1 .37-3.113 8.313 8.313 0 0 1 1.187-2.741 6.14 6.14 0 0 1 2.11-1.938 6.39 6.39 0 0 1 3.176-.729 6.339 6.339 0 0 1 3.214.763q3.611 2.089 3.614 7.6a9.628 9.628 0 0 1-1.568 5.812M39.243 3.06a11.761 11.761 0 0 0-8.729 3.5 12.072 12.072 0 0 0-2.6 4.039 13.812 13.812 0 0 0-.947 5.19 12.951 12.951 0 0 0 3.352 9.274 11.593 11.593 0 0 0 8.924 3.637 11.678 11.678 0 0 0 8.728-3.548 12.729 12.729 0 0 0 3.55-9.313q0-5.9-3.137-9.275-3.24-3.5-9.141-3.5" transform="translate(-4.591 -.521)" style="fill:#3258ee"/>
            <path data-name="패스 3" d="M80.805 21.127a4.954 4.954 0 0 1-4.681 3.073 5.988 5.988 0 0 1-4.483-2.134 7.684 7.684 0 0 1-2.091-5.4v-1.2a8.222 8.222 0 0 1 1.982-5.463 6.29 6.29 0 0 1 4.94-2.4 4.763 4.763 0 0 1 4.115 2.263 8.78 8.78 0 0 1 1.438 5.1 13.725 13.725 0 0 1-1.22 6.159M82 3.985a9.463 9.463 0 0 0-4.25-.925c-.4 0-.775.022-1.145.055l-.057.007a12.022 12.022 0 0 0-7.462 3.414v.016a9.847 9.847 0 0 0-.64-1.9 1.747 1.747 0 0 0-1.7-1.046h-1.329a1.379 1.379 0 0 0-1.035.417 1.276 1.276 0 0 0-.4.914 3.52 3.52 0 0 0 .067.782 43.635 43.635 0 0 1 .652 8.925v24.1q0 1.7 1.37 1.7h2.7q1.284 0 1.284-1.611v-9c0-.531-.006-1.04-.014-1.528v-1.894a10.932 10.932 0 0 0 6.892 2.289v-.008c.08 0 .158.008.239.008a8.968 8.968 0 0 0 7.643-4.115 15.913 15.913 0 0 0 2.762-9.485 13.721 13.721 0 0 0-2.462-8.577A8.785 8.785 0 0 0 82 3.985" transform="translate(-10.891 -.521)" style="fill:#3258ee"/>
            <path data-name="패스 4" d="M116.152 21.758a5.991 5.991 0 0 1-5.181 2.437 6.172 6.172 0 0 1-5.225-2.482 8.029 8.029 0 0 1-1.273-2.578 10.789 10.789 0 0 1-.424-3.027 12.98 12.98 0 0 1 .373-3.113 8.27 8.27 0 0 1 1.182-2.741 6.169 6.169 0 0 1 2.11-1.938 6.406 6.406 0 0 1 3.181-.729 6.331 6.331 0 0 1 3.209.763q3.613 2.089 3.614 7.6a9.628 9.628 0 0 1-1.567 5.812m-5.268-18.7a11.755 11.755 0 0 0-8.728 3.5 12.05 12.05 0 0 0-2.6 4.039 13.763 13.763 0 0 0-.947 5.19 12.958 12.958 0 0 0 3.352 9.274 12.645 12.645 0 0 0 17.654.085 12.74 12.74 0 0 0 3.546-9.313q0-5.9-3.137-9.275-3.24-3.5-9.141-3.5" transform="translate(-16.786 -.521)" style="fill:#3258ee"/>
            <path data-name="패스 5" d="M151.984 21.758A5.988 5.988 0 0 1 146.8 24.2a6.17 6.17 0 0 1-5.225-2.482 8 8 0 0 1-1.273-2.578 10.7 10.7 0 0 1-.426-3.027 13.15 13.15 0 0 1 .373-3.113 8.241 8.241 0 0 1 1.186-2.741 6.11 6.11 0 0 1 2.11-1.938 6.4 6.4 0 0 1 3.178-.729 6.321 6.321 0 0 1 3.21.763q3.612 2.089 3.615 7.6a9.628 9.628 0 0 1-1.568 5.812m-5.268-18.7a11.765 11.765 0 0 0-8.728 3.5 12.076 12.076 0 0 0-2.6 4.039 13.812 13.812 0 0 0-.947 5.19 12.958 12.958 0 0 0 3.352 9.274 12.645 12.645 0 0 0 17.654.085 12.73 12.73 0 0 0 3.546-9.313q0-5.9-3.133-9.275-3.24-3.5-9.144-3.5" transform="translate(-22.885 -.521)" style="fill:#3258ee"/>
            <path data-name="패스 6" d="M189.584 3.833a7.43 7.43 0 0 0-3.363-.773c-.34 0-.662.012-.971.028-.1.006-.2.016-.308.025a10.235 10.235 0 0 0-1.671.255 11.19 11.19 0 0 0-6.138 3.616 13.736 13.736 0 0 0-.827-2.464 1.659 1.659 0 0 0-1.654-.915h-1.2c-1 0-1.5.524-1.5 1.567a20.966 20.966 0 0 0 .281 2.079 43.772 43.772 0 0 1 .283 6.1v13.37a1.434 1.434 0 0 0 .395 1.024 1.516 1.516 0 0 0 1.153.412h2.24a1.443 1.443 0 0 0 1.132-.412 1.472 1.472 0 0 0 .369-1.024v-12.1a6.925 6.925 0 0 1 2.113-5.006 6.037 6.037 0 0 1 4.376-2q4.091 0 4.091 5.573v13.533a1.431 1.431 0 0 0 .392 1.024 1.607 1.607 0 0 0 1.22.412h2.131a1.516 1.516 0 0 0 1.154-.412 1.424 1.424 0 0 0 .392-1.024V13.2q0-4.788-1.655-7.248a6.153 6.153 0 0 0-2.437-2.123" transform="translate(-29.271 -.521)" style="fill:#3258ee"/>
            <path data-name="패스 7" d="M222.527 33.515q-1.613 2.024-5.7 2.024a8.608 8.608 0 0 1-4.307-.979 4.455 4.455 0 0 1-1.438-1.306 3.253 3.253 0 0 1-.544-1.9 2.986 2.986 0 0 1 .8-2.024q1.415-1.023 5.332-1.022a11.017 11.017 0 0 1 4.136.651 4.34 4.34 0 0 1 1.6 1.111 2.53 2.53 0 0 1 .641 1.742 2.7 2.7 0 0 1-.522 1.7m-8.414-17.338a5.132 5.132 0 0 1-1.728-.979 4.513 4.513 0 0 1-1.154-1.536 4.7 4.7 0 0 1-.413-2.012 4.259 4.259 0 0 1 .435-1.971q1.329-2.59 4.809-2.591a6.069 6.069 0 0 1 3.7 1.109 4.088 4.088 0 0 1 1.7 3.463 4.537 4.537 0 0 1-1.525 3.527 4.926 4.926 0 0 1-1.655.99 6.021 6.021 0 0 1-2.058.337 6.522 6.522 0 0 1-2.112-.337m10.939 9.894a10.43 10.43 0 0 0-3.234-1.339 17.833 17.833 0 0 0-4.091-.425 9.774 9.774 0 0 0-4.342 1 8.979 8.979 0 0 1 1.306-1.207q.932-.753 5.7-3.778c.566-.36 1.129-.761 1.684-1.195a16.178 16.178 0 0 0 1.592-1.416A10.012 10.012 0 0 0 225 16.045a8.593 8.593 0 0 0 .925-1.95 5.9 5.9 0 0 0 .349-1.826c0-.522-.016-.943-.043-1.264a15.049 15.049 0 0 0 1.61-6.94c0-3.351-.6-4.065-1.807-4.065h-1.873a1.416 1.416 0 0 0-.739.195 1.185 1.185 0 0 0-.381.382 1.2 1.2 0 0 0-.163.664c0 .275.171.647.511 2.076A10.824 10.824 0 0 1 223.9 6.5a5.751 5.751 0 0 0-1.221-1.631 9.447 9.447 0 0 0-6.769-2.328 10.539 10.539 0 0 0-6.9 2.371 8.424 8.424 0 0 0-3.155 6.813 7.8 7.8 0 0 0 2.807 6.115 10.418 10.418 0 0 0 6.05 2.5 26.148 26.148 0 0 0-4.135 2.94q-4.812 4.243-4.81 8.791A6.738 6.738 0 0 0 209.1 38a13.926 13.926 0 0 0 7.727 2 14.307 14.307 0 0 0 7.794-2.045 7.04 7.04 0 0 0 3.656-6.16 6.428 6.428 0 0 0-3.221-5.724" transform="translate(-35.027)" style="fill:#3258ee"/>
            <path data-name="패스 7071" d="M222.527 33.515q-1.613 2.024-5.7 2.024a8.608 8.608 0 0 1-4.307-.979 4.455 4.455 0 0 1-1.438-1.306 3.253 3.253 0 0 1-.544-1.9 2.986 2.986 0 0 1 .8-2.024q1.415-1.023 5.332-1.022a11.017 11.017 0 0 1 4.136.651 4.34 4.34 0 0 1 1.6 1.111 2.53 2.53 0 0 1 .641 1.742 2.7 2.7 0 0 1-.522 1.7m-8.414-17.338a5.132 5.132 0 0 1-1.728-.979 4.513 4.513 0 0 1-1.154-1.536 4.7 4.7 0 0 1-.413-2.012 4.259 4.259 0 0 1 .435-1.971q1.329-2.59 4.809-2.591a6.069 6.069 0 0 1 3.7 1.109 4.088 4.088 0 0 1 1.7 3.463 4.537 4.537 0 0 1-1.525 3.527 4.926 4.926 0 0 1-1.655.99 6.021 6.021 0 0 1-2.058.337 6.522 6.522 0 0 1-2.112-.337m10.939 9.894a10.43 10.43 0 0 0-3.234-1.339 17.833 17.833 0 0 0-4.091-.425 9.774 9.774 0 0 0-4.342 1 8.979 8.979 0 0 1 1.306-1.207q.932-.753 5.7-3.778c.566-.36 1.129-.761 1.684-1.195a16.178 16.178 0 0 0 1.592-1.416A10.012 10.012 0 0 0 225 16.045a8.593 8.593 0 0 0 .925-1.95 5.9 5.9 0 0 0 .349-1.826c0-.522-.016-.943-.043-1.264a15.049 15.049 0 0 0 1.61-6.94c0-3.351-.6-4.065-1.807-4.065h-1.873a1.416 1.416 0 0 0-.739.195 1.185 1.185 0 0 0-.381.382 1.2 1.2 0 0 0-.163.664c0 .275.171.647.511 2.076A10.824 10.824 0 0 1 223.9 6.5a5.751 5.751 0 0 0-1.221-1.631 9.447 9.447 0 0 0-6.769-2.328 10.539 10.539 0 0 0-6.9 2.371 8.424 8.424 0 0 0-3.155 6.813 7.8 7.8 0 0 0 2.807 6.115 10.418 10.418 0 0 0 6.05 2.5 26.148 26.148 0 0 0-4.135 2.94q-4.812 4.243-4.81 8.791A6.738 6.738 0 0 0 209.1 38a13.926 13.926 0 0 0 7.727 2 14.307 14.307 0 0 0 7.794-2.045 7.04 7.04 0 0 0 3.656-6.16 6.428 6.428 0 0 0-3.221-5.724" transform="translate(-35.027)" style="fill:#3258ee"/>
        </g>
    </g>
</svg>
